<?xml version="1.0" encoding="iso-8859-1"?>
<!-- Generator: Adobe Illustrator 16.0.0, SVG Export Plug-In . SVG Version: 6.00 Build 0)  -->
<!DOCTYPE svg PUBLIC "-//W3C//DTD SVG 1.1//EN" "http://www.w3.org/Graphics/SVG/1.1/DTD/svg11.dtd">
<svg version="1.1" id="Capa_1" xmlns="http://www.w3.org/2000/svg" xmlns:xlink="http://www.w3.org/1999/xlink" x="0px" y="0px"
	 width="521.801px" height="521.8px" viewBox="0 0 521.801 521.8" style="enable-background:new 0 0 521.801 521.8;"
	 xml:space="preserve">
<g>
	<g>
		<circle cx="179.171" cy="86.964" r="57.289"/>
		<path d="M521.643,310.66c-2.457-18.436-33.02-20.818-68.257-5.355l-3.223,1.416l-55.042-73.393l-1.932-20.1
			c-0.812-8.396-6.55-15.501-14.583-18.063l-97.088-30.896l-9.601-18.293c-4.724-8.023-15.501-11.676-24.117-8.138l-85.68,39.627
			L22.853,165.702c-11.714-0.908-21.793,7.631-22.778,19.221c-0.976,11.6,7.631,21.793,19.221,22.778l143.179,12.116l36.29,92.316
			l-34.807,6.053c-10.672,1.855-19.479,9.41-22.912,19.689c-3.442,10.279-0.975,21.611,6.407,29.529l47.937,51.293l-19.086,8.387
			c-35.238,15.48-55.683,39.885-45.651,54.477c10.012,14.584,46.76,14.01,82.037-1.348l249.542-108.42
			C497.507,356.464,524.109,329.087,521.643,310.66z M227.816,366.974l60.904-10.596c8.185-1.416,15.386-6.225,19.842-13.244
			l43.644-68.668l5.211,6.951l4.619,47.918c0.507,5.279,2.945,9.887,6.521,13.264L252.64,393.539L227.816,366.974z"/>
	</g>
</g>
<g>
</g>
<g>
</g>
<g>
</g>
<g>
</g>
<g>
</g>
<g>
</g>
<g>
</g>
<g>
</g>
<g>
</g>
<g>
</g>
<g>
</g>
<g>
</g>
<g>
</g>
<g>
</g>
<g>
</g>
</svg>
